<svg version="1.1" id="Layer_1" xmlns="http://www.w3.org/2000/svg" xmlns:xlink="http://www.w3.org/1999/xlink" x="0px" y="0px"
	 width="100%" viewBox="0 0 215 208" enable-background="new 0 0 215 208" xml:space="preserve">
<path fill="#FFFFFF" opacity="1.000000" stroke="none" 
	d="
M100.000000,209.000000 
	C66.686081,209.000000 33.872162,209.000000 1.029120,209.000000 
	C1.029120,139.727081 1.029120,70.454155 1.029120,1.090613 
	C72.563782,1.090613 144.127716,1.090613 215.845825,1.090613 
	C215.845825,70.333069 215.845825,139.666489 215.845825,209.000000 
	C177.454422,209.000000 138.977219,209.000000 100.000000,209.000000 
M95.004539,101.977547 
	C95.004539,101.977547 94.936012,101.928406 94.272919,102.136124 
	C92.852051,105.758232 91.431175,109.380341 89.551079,113.370728 
	C89.412628,113.929886 89.274178,114.489044 88.585869,115.439957 
	C87.852867,117.310669 87.119858,119.181381 86.114609,121.716187 
	C85.702507,123.075569 85.290398,124.434944 84.250832,126.075890 
	C83.287781,128.405685 82.324722,130.735474 81.147247,133.719742 
	C81.051880,134.400589 80.956520,135.081451 80.230354,136.058609 
	C79.648773,136.847305 78.906006,137.563080 78.510918,138.436157 
	C75.103439,145.966171 73.953293,154.874588 65.480278,159.929977 
	C66.993256,160.261261 68.506233,160.592545 70.923058,160.990295 
	C73.948959,160.975113 76.974869,160.959930 80.533371,160.872177 
	C80.814232,160.655243 81.095100,160.438309 81.727066,160.325760 
	C81.727066,160.325760 82.070740,160.199097 82.607162,160.087158 
	C82.773911,159.785492 82.940666,159.483841 83.329773,159.238434 
	C83.329773,159.238434 83.477547,159.063019 83.484825,159.040878 
	C83.484825,159.040878 83.503395,159.027267 83.720032,159.781967 
	C85.476822,159.856384 87.233612,159.930801 89.285172,159.321945 
	C89.172325,155.457642 89.346397,151.553299 88.815544,147.747299 
	C88.579475,146.054779 86.921875,144.560532 86.034760,142.251404 
	C87.696541,138.185730 89.509628,134.173401 90.968292,130.036118 
	C91.985641,127.150543 93.524124,125.810249 96.736946,125.921196 
	C101.833328,126.097183 106.944527,125.844208 112.968758,125.881889 
	C117.634689,125.842049 122.300629,125.802208 127.643845,125.959763 
	C128.740250,126.343788 129.836655,126.727806 130.963486,127.744629 
	C131.071411,128.151138 131.179321,128.557632 131.196945,129.720779 
	C132.740616,133.243210 134.284302,136.765656 135.812744,140.853989 
	C135.850510,141.229202 135.888275,141.604431 135.550674,142.356430 
	C135.986282,142.982620 136.421890,143.608795 136.880966,144.627960 
	C136.880966,144.627960 136.999680,145.003311 137.019608,145.785660 
	C137.385712,147.198975 137.508896,148.737427 138.161087,150.003342 
	C140.632736,154.800888 143.275772,159.510147 145.926758,164.888092 
	C146.347931,165.572800 146.769119,166.257492 147.174942,167.640793 
	C148.414307,169.160049 149.653656,170.679306 150.966461,172.604065 
	C150.966461,172.604065 151.123505,172.985062 151.162628,173.671204 
	C154.362671,176.527878 154.564545,182.244675 160.291275,183.537415 
	C161.206940,183.987808 162.122604,184.438202 163.348083,185.454681 
	C164.253540,185.903381 165.158981,186.352097 166.472412,187.350937 
	C168.234848,187.946991 169.997299,188.543030 172.109375,189.805283 
	C179.791351,193.062042 190.060165,192.245270 194.337921,187.218307 
	C189.738571,187.218307 185.855682,187.218307 181.292313,187.069168 
	C180.599167,187.005310 179.906021,186.941452 178.798065,186.411545 
	C178.214172,186.222000 177.630295,186.032471 176.558517,185.368866 
	C175.672562,184.957260 174.668152,184.697189 173.918472,184.111221 
	C163.316650,175.824600 155.966461,164.862564 151.104584,152.692322 
	C142.190811,130.379303 134.192444,107.693390 126.137184,85.047424 
	C121.511147,72.042130 116.304543,59.842201 101.059113,55.306732 
	C100.371651,55.197426 99.684181,55.088120 98.251175,54.924271 
	C97.503891,54.929676 96.756607,54.935085 95.416985,54.446030 
	C89.125984,53.523399 83.861000,56.101879 77.460892,58.585453 
	C84.216408,58.585453 89.649445,58.585453 95.773399,58.815849 
	C97.410027,59.623795 99.141846,60.283794 100.666939,61.265091 
	C107.561569,65.701332 108.159180,67.379501 105.224724,75.096962 
	C101.928032,83.767105 98.451317,92.368797 94.936150,101.470917 
	C94.936150,101.470917 94.923294,101.955658 95.004539,101.977547 
z"/>
<path fill="#F3A9AA" opacity="1.000000" stroke="none" 
	d="
M163.038269,184.888611 
	C162.122604,184.438202 161.206940,183.987808 160.115204,182.901215 
	C157.000580,179.171707 154.062042,176.078384 151.123505,172.985062 
	C151.123505,172.985062 150.966461,172.604065 150.963211,172.021149 
	C149.703400,169.939545 148.446854,168.440872 147.190292,166.942200 
	C146.769119,166.257492 146.347931,165.572800 145.932465,164.165573 
	C144.102921,158.345352 142.402023,153.192322 140.340790,148.187698 
	C139.805496,146.888016 138.143921,146.052200 136.999680,145.003311 
	C136.999680,145.003311 136.880966,144.627960 136.900818,144.096588 
	C136.589142,143.036682 136.257599,142.508163 135.926056,141.979645 
	C135.888275,141.604431 135.850510,141.229202 135.872086,140.151825 
	C134.383362,135.954498 132.835297,132.459320 131.287231,128.964142 
	C131.179321,128.557632 131.071411,128.151138 130.965622,127.048035 
	C130.481628,125.607170 129.871063,124.186592 129.533325,124.248749 
	C128.615952,124.417549 127.814171,125.214455 126.966560,125.762375 
	C122.300629,125.802208 117.634689,125.842049 112.492599,125.441254 
	C112.012962,123.955635 112.009483,122.910652 112.454735,121.865631 
	C115.591072,121.869568 118.278671,121.873566 121.110313,122.125748 
	C121.846687,122.210091 122.439034,122.046249 123.410477,121.874100 
	C125.206085,120.906784 126.622597,119.947777 128.280579,118.769287 
	C127.713531,116.693932 126.905014,114.838066 126.042122,112.756439 
	C125.987740,112.530670 125.958893,112.067108 125.976669,111.642288 
	C124.300667,106.487823 122.606888,101.758194 120.666733,96.771133 
	C117.852013,89.688484 115.283653,82.863258 112.715302,76.038040 
	C112.286583,76.163742 111.857872,76.289444 111.429161,76.415146 
	C106.572388,88.600571 101.715607,100.785995 96.547928,113.033524 
	C95.847710,114.404366 95.458405,115.713097 95.035370,117.356911 
	C94.695152,118.752716 94.388672,119.813438 93.934189,121.197021 
	C90.267822,128.910217 86.528175,136.207062 83.345314,143.739182 
	C82.153381,146.559845 82.257538,149.928177 81.822342,153.415070 
	C81.894798,154.526901 81.915672,155.270462 81.721176,156.197845 
	C82.029495,156.911667 82.553177,157.441650 83.186142,158.241135 
	C83.356140,158.694778 83.416840,158.878906 83.477547,159.063019 
	C83.477547,159.063019 83.329773,159.238434 82.964211,159.278122 
	C82.422676,159.611572 82.246712,159.905334 82.070740,160.199097 
	C82.070740,160.199097 81.727066,160.325760 81.270401,160.280487 
	C80.542747,160.471725 80.271759,160.708237 80.000771,160.944748 
	C76.974869,160.959930 73.948959,160.975113 70.466652,160.597443 
	C70.921967,158.715668 71.632523,157.045990 72.780022,155.768906 
	C77.912170,150.057236 79.434799,142.940399 80.861160,135.762299 
	C80.956520,135.081451 81.051880,134.400589 81.602859,133.356720 
	C85.859550,131.714554 84.826385,128.541946 84.878296,125.794327 
	C85.290398,124.434944 85.702507,123.075569 86.561646,121.311958 
	C89.276115,119.520271 91.151436,117.990479 89.135727,115.048203 
	C89.274178,114.489044 89.412628,113.929886 90.135887,113.119019 
	C92.125801,109.221008 93.530907,105.574707 94.936012,101.928406 
	C94.936012,101.928406 95.004539,101.977547 95.142944,101.904999 
	C95.358437,101.735260 95.520554,101.584915 95.498520,101.549667 
	C95.374481,101.351227 95.206154,101.180466 95.052917,101.000275 
	C98.451317,92.368797 101.928032,83.767105 105.224724,75.096962 
	C108.159180,67.379501 107.561569,65.701332 100.666939,61.265091 
	C99.141846,60.283794 97.410027,59.623795 95.407776,58.392899 
	C95.364540,56.960133 95.686928,55.950310 96.009323,54.940491 
	C96.756607,54.935085 97.503891,54.929676 98.818787,55.216969 
	C100.020370,55.610023 100.654343,55.710384 101.288315,55.810745 
	C116.304543,59.842201 121.511147,72.042130 126.137184,85.047424 
	C134.192444,107.693390 142.190811,130.379303 151.104584,152.692322 
	C155.966461,164.862564 163.316650,175.824600 173.918472,184.111221 
	C174.668152,184.697189 175.672562,184.957260 176.957184,185.897797 
	C177.974854,186.577026 178.593857,186.727310 179.212875,186.877594 
	C179.906021,186.941452 180.599167,187.005310 181.675766,187.463013 
	C182.930389,191.161850 180.340103,189.947952 179.094849,189.916534 
	C176.644836,189.854752 174.204224,189.419708 171.759735,189.139069 
	C169.997299,188.543030 168.234848,187.946991 166.212494,186.777924 
	C164.981155,185.766129 164.009705,185.327362 163.038269,184.888611 
z"/>
<path fill="#F0B7B9" opacity="1.000000" stroke="none" 
	d="
M81.770752,153.046814 
	C82.257538,149.928177 82.153381,146.559845 83.345314,143.739182 
	C86.528175,136.207062 90.267822,128.910217 94.390656,121.255005 
	C100.665421,121.281982 106.335716,121.573830 112.006004,121.865677 
	C112.009483,122.910652 112.012962,123.955635 112.032944,125.386665 
	C106.944527,125.844208 101.833328,126.097183 96.736946,125.921196 
	C93.524124,125.810249 91.985641,127.150543 90.968292,130.036118 
	C89.509628,134.173401 87.696541,138.185730 85.708328,142.840118 
	C84.178185,146.634811 82.974472,149.840820 81.770752,153.046814 
z"/>
<path fill="#FEF3F1" opacity="1.000000" stroke="none" 
	d="
M81.822342,153.415070 
	C82.974472,149.840820 84.178185,146.634811 85.645699,143.202545 
	C86.921875,144.560532 88.579475,146.054779 88.815544,147.747299 
	C89.346397,151.553299 89.172325,155.457642 88.748093,159.590744 
	C86.641808,159.582123 85.072601,159.304703 83.503395,159.027267 
	C83.503395,159.027267 83.484825,159.040878 83.481186,159.051941 
	C83.416840,158.878906 83.356140,158.694778 83.141861,157.946167 
	C82.637703,156.925812 82.287125,156.469925 81.936546,156.014023 
	C81.915672,155.270462 81.894798,154.526901 81.822342,153.415070 
z"/>
<path fill="#F0B7B9" opacity="1.000000" stroke="none" 
	d="
M80.545761,135.910461 
	C79.434799,142.940399 77.912170,150.057236 72.780022,155.768906 
	C71.632523,157.045990 70.921967,158.715668 70.014725,160.564209 
	C68.506233,160.592545 66.993256,160.261261 65.480278,159.929977 
	C73.953293,154.874588 75.103439,145.966171 78.510918,138.436157 
	C78.906006,137.563080 79.648773,136.847305 80.545761,135.910461 
z"/>
<path fill="#EBB6B9" opacity="1.000000" stroke="none" 
	d="
M171.934555,189.472168 
	C174.204224,189.419708 176.644836,189.854752 179.094849,189.916534 
	C180.340103,189.947952 182.930389,191.161850 182.016006,187.537567 
	C185.855682,187.218307 189.738571,187.218307 194.337921,187.218307 
	C190.060165,192.245270 179.791351,193.062042 171.934555,189.472168 
z"/>
<path fill="#EEB8BE" opacity="1.000000" stroke="none" 
	d="
M95.713150,54.693260 
	C95.686928,55.950310 95.364540,56.960133 95.062317,58.277702 
	C89.649445,58.585453 84.216408,58.585453 77.460892,58.585453 
	C83.861000,56.101879 89.125984,53.523399 95.713150,54.693260 
z"/>
<path fill="#EBB6B9" opacity="1.000000" stroke="none" 
	d="
M137.009644,145.394485 
	C138.143921,146.052200 139.805496,146.888016 140.340790,148.187698 
	C142.402023,153.192322 144.102921,158.345352 145.896439,163.847733 
	C143.275772,159.510147 140.632736,154.800888 138.161087,150.003342 
	C137.508896,148.737427 137.385712,147.198975 137.009644,145.394485 
z"/>
<path fill="#EBB6B9" opacity="1.000000" stroke="none" 
	d="
M151.143066,173.328125 
	C154.062042,176.078384 157.000580,179.171707 159.977982,182.608917 
	C154.564545,182.244675 154.362671,176.527878 151.143066,173.328125 
z"/>
<path fill="#F0B7B9" opacity="1.000000" stroke="none" 
	d="
M131.242096,129.342468 
	C132.835297,132.459320 134.383362,135.954498 135.879700,139.868881 
	C134.284302,136.765656 132.740616,133.243210 131.242096,129.342468 
z"/>
<path fill="#F0B7B9" opacity="1.000000" stroke="none" 
	d="
M94.604462,102.032265 
	C93.530907,105.574707 92.125801,109.221008 90.365494,112.934883 
	C91.431175,109.380341 92.852051,105.758232 94.604462,102.032265 
z"/>
<path fill="#F0B7B9" opacity="1.000000" stroke="none" 
	d="
M84.564560,125.935104 
	C84.826385,128.541946 85.859550,131.714554 81.710068,133.029480 
	C82.324722,130.735474 83.287781,128.405685 84.564560,125.935104 
z"/>
<path fill="#F0B7B9" opacity="1.000000" stroke="none" 
	d="
M88.860794,115.244080 
	C91.151436,117.990479 89.276115,119.520271 86.697762,120.979919 
	C87.119858,119.181381 87.852867,117.310669 88.860794,115.244080 
z"/>
<path fill="#EBB6B9" opacity="1.000000" stroke="none" 
	d="
M147.182617,167.291504 
	C148.446854,168.440872 149.703400,169.939545 150.926483,171.818390 
	C149.653656,170.679306 148.414307,169.160049 147.182617,167.291504 
z"/>
<path fill="#F0B7B9" opacity="1.000000" stroke="none" 
	d="
M127.305206,125.861069 
	C127.814171,125.214455 128.615952,124.417549 129.533325,124.248749 
	C129.871063,124.186592 130.481628,125.607170 130.950409,126.731636 
	C129.836655,126.727806 128.740250,126.343788 127.305206,125.861069 
z"/>
<path fill="#F0B7B9" opacity="1.000000" stroke="none" 
	d="
M83.611710,159.404617 
	C85.072601,159.304703 86.641808,159.582123 88.600708,159.932373 
	C87.233612,159.930801 85.476822,159.856384 83.611710,159.404617 
z"/>
<path fill="#EBB6B9" opacity="1.000000" stroke="none" 
	d="
M163.193176,185.171646 
	C164.009705,185.327362 164.981155,185.766129 166.008514,186.502853 
	C165.158981,186.352097 164.253540,185.903381 163.193176,185.171646 
z"/>
<path fill="#F0B7B9" opacity="1.000000" stroke="none" 
	d="
M135.738373,142.168030 
	C136.257599,142.508163 136.589142,143.036682 136.889099,143.900085 
	C136.421890,143.608795 135.986282,142.982620 135.738373,142.168030 
z"/>
<path fill="#EEB8BE" opacity="1.000000" stroke="none" 
	d="
M101.173714,55.558739 
	C100.654343,55.710384 100.020370,55.610023 99.191559,55.244240 
	C99.684181,55.088120 100.371651,55.197426 101.173714,55.558739 
z"/>
<path fill="#EBB6B9" opacity="1.000000" stroke="none" 
	d="
M179.005463,186.644562 
	C178.593857,186.727310 177.974854,186.577026 177.201111,186.134842 
	C177.630295,186.032471 178.214172,186.222000 179.005463,186.644562 
z"/>
<path fill="#F0B7B9" opacity="1.000000" stroke="none" 
	d="
M94.994537,101.235596 
	C95.206154,101.180466 95.374481,101.351227 95.498520,101.549667 
	C95.520554,101.584915 95.358437,101.735260 95.102325,101.894058 
	C94.923294,101.955658 94.936150,101.470917 94.994537,101.235596 
z"/>
<path fill="#F0B7B9" opacity="1.000000" stroke="none" 
	d="
M82.338959,160.143127 
	C82.246712,159.905334 82.422676,159.611572 82.853027,159.250000 
	C82.940666,159.483841 82.773911,159.785492 82.338959,160.143127 
z"/>
<path fill="#F0B7B9" opacity="1.000000" stroke="none" 
	d="
M80.267075,160.908463 
	C80.271759,160.708237 80.542747,160.471725 81.094856,160.228302 
	C81.095100,160.438309 80.814232,160.655243 80.267075,160.908463 
z"/>
<path fill="#FDFBFA" opacity="1.000000" stroke="none" 
	d="
M112.454735,121.865631 
	C106.335716,121.573830 100.665421,121.281982 94.538666,120.932144 
	C94.388672,119.813438 94.695152,118.752716 95.277649,117.143166 
	C95.988731,115.386703 96.423782,114.179062 96.858833,112.971420 
	C101.715607,100.785995 106.572388,88.600571 111.429161,76.415146 
	C111.857872,76.289444 112.286583,76.163742 112.715302,76.038040 
	C115.283653,82.863258 117.852013,89.688484 120.682770,97.171097 
	C122.616425,102.574692 124.287659,107.320900 125.958893,112.067108 
	C125.958893,112.067108 125.987740,112.530670 126.025772,113.126213 
	C126.722237,115.477425 127.380676,117.233101 128.039108,118.988770 
	C126.622597,119.947777 125.206085,120.906784 123.244057,121.685562 
	C122.121117,121.629410 121.543694,121.753487 120.966278,121.877563 
	C118.278671,121.873566 115.591072,121.869568 112.454735,121.865631 
z"/>
<path fill="#F0B7B9" opacity="1.000000" stroke="none" 
	d="
M125.976669,111.642288 
	C124.287659,107.320900 122.616425,102.574692 120.929146,97.428520 
	C122.606888,101.758194 124.300667,106.487823 125.976669,111.642288 
z"/>
<path fill="#F0B7B9" opacity="1.000000" stroke="none" 
	d="
M128.280579,118.769287 
	C127.380676,117.233101 126.722237,115.477425 126.080154,113.351974 
	C126.905014,114.838066 127.713531,116.693932 128.280579,118.769287 
z"/>
<path fill="#F0B7B9" opacity="1.000000" stroke="none" 
	d="
M96.547928,113.033524 
	C96.423782,114.179062 95.988731,115.386703 95.311386,116.808090 
	C95.458405,115.713097 95.847710,114.404366 96.547928,113.033524 
z"/>
<path fill="#F0B7B9" opacity="1.000000" stroke="none" 
	d="
M81.721176,156.197845 
	C82.287125,156.469925 82.637703,156.925812 83.032570,157.676666 
	C82.553177,157.441650 82.029495,156.911667 81.721176,156.197845 
z"/>
<path fill="#F0B7B9" opacity="1.000000" stroke="none" 
	d="
M121.110313,122.125748 
	C121.543694,121.753487 122.121117,121.629410 122.864952,121.693863 
	C122.439034,122.046249 121.846687,122.210091 121.110313,122.125748 
z"/>
</svg>